<?xml version="1.0" encoding="utf-8"?>
<!-- Generator: Adobe Illustrator 22.0.1, SVG Export Plug-In . SVG Version: 6.00 Build 0)  -->
<svg version="1.1" id="圖層_1" xmlns="http://www.w3.org/2000/svg" xmlns:xlink="http://www.w3.org/1999/xlink" x="0px" y="0px"
	 viewBox="0 0 614.7 56.5" style="enable-background:new 0 0 614.7 56.5;" xml:space="preserve">
<style type="text/css">
	.st0{fill:#FFFFFF;}
</style>
<rect class="st0" width="614.7" height="56.5"/>
<g>
	<g>
		<path d="M16.9,24.3v26.2c0,0.5-1.8,1.5-3.4,1.5h-0.9V29.2h-0.1C10.4,34,7.7,39.6,5.2,43.5l-0.8-0.3c1.2-4.4,3-11.4,4.3-17.1
			l3.9,1.4v-3.3H5.1l-0.4-1.5h7.9V3.6l6.2,0.7c-0.2,0.7-0.6,1.3-1.9,1.5v17h1.3l2.4-3.2c0,0,2.6,2.2,4.3,3.8
			c-0.1,0.6-0.6,0.8-1.3,0.8H16.9z M6,8.2c9.4,7.4,5.5,15.3,2.1,11.7c0-3.6-1.5-8.2-2.8-11.4L6,8.2z M18,27
			c10.2,7.5,6.1,15.8,2.5,12.1c-0.1-3.7-1.7-8.5-3.1-11.8L18,27z M48.1,18.9c0,0,3,2.3,4.8,4.1c-0.2,0.6-0.7,0.8-1.4,0.8H25.2
			l-0.4-1.5h10.4v-4.9h-7.1l-0.4-1.5h7.5v-4.5H26l-0.4-1.3c-0.3,0.3-0.8,0.5-1.6,0.5c-1.7,3.2-3.8,7.1-5.7,9.8L17.5,20
			c0.8-3.1,2-8.1,2.9-12.3L26,9.6c-0.1,0.1-0.1,0.2-0.2,0.3h9.3V3.6l6.3,0.6c-0.1,0.7-0.5,1.1-1.7,1.4v4.3h4.3l2.6-3.3
			c0,0,3,2.3,4.8,4c-0.2,0.6-0.7,0.8-1.4,0.8H39.8v4.5h3.3l2.4-3c0,0,2.8,2.1,4.5,3.7c-0.2,0.6-0.7,0.8-1.4,0.8h-8.8v4.9h5.7
			L48.1,18.9z M45.5,25l5,3.7c-0.4,0.4-1.1,0.8-2.2,1v16.1c0,3.3-0.7,5.1-6,5.7c-0.1-1.5-0.4-2.5-1-3.2c-0.7-0.7-1.7-1.2-3.7-1.6
			v-0.8c0,0,4.2,0.3,5.1,0.3c0.8,0,1-0.3,1-1v-4.5H31.6c-0.6,4.2-2.4,8.5-8.3,11.4l-0.5-0.6c4.2-4,4.5-9.2,4.5-14.6V25.5l5.3,2h10.8
			L45.5,25z M43.9,39.4v-4.5H31.9v2.1c0,0.7,0,1.6-0.1,2.3H43.9z M31.9,29v4.5h12.1V29H31.9z"/>
		<path d="M81.5,8.1c-0.4,0.4-1.1,0.8-2.1,1v37.3c0,3.1-0.6,4.8-5.3,5.3c-0.1-1.2-0.3-2.2-0.9-2.8c-0.6-0.7-1.5-1.1-3.4-1.4v-0.8
			c0,0,3.8,0.3,4.6,0.3c0.8,0,1-0.3,1-1V25.6c-0.2,0.1-0.5,0.2-0.8,0.2H62.8l-0.4-1.5H67v-6.7h-4.1l-0.4-1.5H67V9.7l4.7,0.6
			c-0.1,0.6-0.4,0.9-1.3,1.1v4.7h1.5l1.3-2.1c0,0,1.4,1.3,2.3,2.4v-8H62.4v14.4c0,8.8,0.2,20.8-5.2,29.3l-0.9-0.4
			c2.6-8.6,2.3-19.4,2.3-28.9V5.1L63.1,7h11.9L77,4.6L81.5,8.1z M66.9,40.6V43c0,0.3-0.9,0.9-2.3,0.9h-0.4V28l3.2,1.5h2.8l1.5-1.6
			l3.2,2.5c-0.2,0.3-0.8,0.6-1.5,0.7v10.5c-0.1,0.3-1.4,1-2.4,1h-0.5v-2.1H66.9z M66.9,31v8.1h3.6V31H66.9z M73.3,22.1
			c0,0,1.2,1.2,2.2,2.3v-7.1c-0.2,0.2-0.5,0.3-0.9,0.3h-4.2v6.7h1.5L73.3,22.1z M99.9,43.3c0,0,2.7,2.2,4.4,3.8
			c-0.2,0.6-0.6,0.8-1.3,0.8H86.7v2.7c0,0.3-1.3,1.3-3.3,1.3h-0.7V20.7c-0.8,1.2-1.6,2.4-2.5,3.5l-0.6-0.5c2.5-5.8,4-14.4,4.4-19.8
			l6.3,1.9c-0.4-0.8-0.8-1.5-1.2-2.1l0.6-0.3c10.5,4.4,6,12.4,2.3,8.8c0.1-2.1-0.6-4.4-1.6-6.4c-0.3,0.6-0.7,0.9-2,0.9
			c-0.6,2-1.3,4.4-2.3,6.9l1.3,0.5H97l2.3-3.1c0,0,2.7,2.1,4.3,3.7c-0.1,0.6-0.6,0.8-1.3,0.8h-6.7v9.1h1.4l2.1-3
			c0,0,2.6,2.1,4.1,3.6c-0.2,0.6-0.6,0.8-1.3,0.8h-6.2v9.1h1.4l2.1-3c0,0,2.6,2.1,4.1,3.7c-0.2,0.6-0.6,0.8-1.3,0.8h-6.2v9.6h2.1
			L99.9,43.3z M86.7,15.6v9.1h4.6v-9.1H86.7z M91.4,26.3h-4.6v9.1h4.6V26.3z M86.7,46.4h4.6v-9.6h-4.6V46.4z"/>
		<path d="M144.9,25.5l3.8-5.3c0,0,4.3,3.6,7,6.1c-0.2,0.6-0.8,0.8-1.6,0.8h-45.6l-0.5-1.7H144.9z"/>
		<path d="M168.6,25.1c0,8.5-0.5,19.6-9.2,27l-0.7-0.5c4.6-7.8,4.9-17.6,4.9-26.6V10l5.7,2.2h16.2c-0.4-0.1-0.8-0.3-1.1-0.5
			c-0.7-2.7-3-5.9-4.9-7.9l0.4-0.4c10.5,1.5,10.4,7.8,7.3,8.7h11.8l2.9-3.8c0,0,3.3,2.6,5.3,4.5c-0.2,0.6-0.7,0.8-1.4,0.8h-37.3
			V25.1z M202.3,44.7c0,0,3.3,2.7,5.3,4.6c-0.2,0.6-0.7,0.8-1.4,0.8h-40.1l-0.4-1.5h18.5v-9.1h-13.6l-0.4-1.5h14V14.2l6.5,0.6
			c-0.1,0.7-0.5,1.2-1.7,1.4v21.8h6.5l2.8-3.6c0,0,3.1,2.5,5,4.3c-0.1,0.6-0.7,0.8-1.4,0.8h-13v9.1h10.4L202.3,44.7z M180.3,17.8
			c-0.2,0.6-0.7,1.1-1.9,1.1c-0.4,1.8-0.9,3.4-1.4,5c9.5,4.7,5.5,11.6,2,8.4c-0.1-2.3-1.3-4.9-2.5-7c-1.8,4.4-4,8.1-6.9,10.7
			l-0.8-0.5c2.7-4.8,4.6-11.9,5.2-19.1L180.3,17.8z M201.4,18.1c-0.2,0.7-0.8,1.1-1.9,1.1c-0.5,1.9-1.1,3.6-1.9,5.3
			c11.1,4.5,7.6,12.5,3.6,9.5c-0.5-2.7-2.3-5.9-4.2-8.2c-1.8,3.6-4,6.7-6.6,8.9l-0.7-0.5c2.5-4.3,4.4-10.9,5.1-17.5L201.4,18.1z"/>
		<path d="M226.5,28.7c0-2.2,1.8-4,4-4c2.2,0,4,1.8,4,4c0,2.2-1.8,4-4,4C228.3,32.7,226.5,30.8,226.5,28.7z"/>
		<path d="M271.9,50c0,0.6-2.1,2-3.9,2h-0.9V35.4c-2.4,1.5-5.6,3.5-8.9,5.5c-0.4,0.7-1,1.1-1.4,1.3l-2.3-5.1
			c1.6-0.9,1.9-1.3,1.9-2.3V9l6.3,0.7c-0.1,0.7-0.6,1.2-1.8,1.4v24.3c1.9-0.5,4-1.1,6.2-1.8V3.8l6.5,0.7c-0.1,0.7-0.5,1.2-1.8,1.5
			V50z M297.2,17.3c-1.2,8.3-3.5,15.6-7.8,21.7c3.3,3.6,7.7,6.3,13.2,8.3l-0.2,0.5c-2.4,0.5-3.9,1.9-4.5,4.2
			c-4.8-2.4-8.5-5.7-11.3-9.7c-3.7,4-8.5,7.3-14.8,9.8l-0.4-0.6c5.8-3.4,10.1-7.7,13.2-12.5c-2.4-4.5-4-9.9-5.1-16
			c-1.8,3.4-3.9,6.2-6.1,8.7l-0.7-0.4c3.3-7,6.2-17.5,7.3-27.7l7.4,1.6c-0.2,0.7-0.8,1.1-2,1.2c-0.8,3.2-1.7,6.3-2.8,9.3h11.5
			l2.9-3.8c0,0,3.2,2.6,5.1,4.4c-0.1,0.6-0.7,0.8-1.4,0.8H297.2z M282.3,17.3c-0.6,1.5-1.1,2.9-1.8,4.1c1.3,5.5,3.3,10.3,6.2,14.4
			c2.9-5.6,4.4-11.8,5-18.5H282.3z"/>
		<path d="M352,47.3c1.4,2,1.6,3,1,3.6c-1.4,1.8-4.5,0.3-6.4-1.4c-2.1-1.7-3.8-3.8-5.1-6.2c-3.1,3.8-7,6.6-11.6,8.7l-0.6-0.6
			c2.6-1.8,4.9-4,7.1-6.4c-0.2,0.1-0.3,0.1-0.5,0.1h-10.9l-1.4,2.1l-4.1-2.8c0.3-0.3,0.9-0.8,1.5-1.1V20.3l4.2,2.1h5.5l2.1-2.7
			c0,0,2.3,1.9,3.7,3.3c-0.1-1.3-0.2-2.5-0.2-3.9h-17.1V29c0,7.1-0.4,16.7-7.1,23.1l-0.7-0.5c2.8-5.2,3.6-11.4,3.8-17.4h-2.8
			c-0.3,5.5-1.4,11.5-6.2,16l-0.8-0.8c3.1-4.7,3.5-10.4,3.6-15.2h-2.7l-0.5-1.5h9.5c0.1-1.2,0.1-2.5,0.1-3.7v-1.3H312l-1.4,2.2
			l-4.1-2.8c0.3-0.4,0.9-0.8,1.5-1.1v-9.8l5.7,0.6c-0.2,0.6-0.6,1-2.1,1.3v8.2h3.7V15.7l4.7,1.9h16.4c-0.1-1.4-0.1-2.7-0.1-4.1
			l6,0.7c-0.1,0.6-0.5,1.2-1.8,1.4v2h5.9l2.4-3.2c0,0,2.7,2.2,4.3,3.8c-0.1,0.6-0.6,0.8-1.3,0.8h-11.3c0.1,5.7,0.6,11.2,2,15.9
			c1.6-3.7,2.8-8,3.5-12.7l6,2c-0.2,0.6-0.8,1.1-2,1c-1.4,5.7-3.3,10.4-5.8,14.4c1.1,2.3,2.6,4.4,4.5,5.9c0.7,0.6,1,0.6,1.3-0.3
			c0.6-1.1,1.4-3.4,2.1-5.3l0.6,0.1L352,47.3z M306,8.7h9.5l-0.6-5l6.4,0.5c-0.1,0.6-0.5,1.1-1.5,1.5l0.4,3.1h2.6l2.4-3.2
			c0,0,2.8,2.2,4.4,3.9c-0.1,0.6-0.6,0.8-1.3,0.8h-7.9l0.5,3.3c-0.7,0.9-2.4,1.4-4.6,1.3l-0.6-4.6h-9.3L306,8.7z M327.3,29.2v-5.3
			h-2.6v5.3H327.3z M331.9,30.7h-7.3v5.4h7.3V30.7z M327.3,43.6v-5.9h-2.6v5.9H327.3z M333.4,40.8c0,0,2.3,1.9,3.7,3.3
			c1-1.2,2-2.7,2.8-4.1c-2-4.9-2.9-10.6-3.4-16.9c-0.2,0.5-0.6,0.7-1.3,0.7h-4.8v5.3h1l1.8-1.8l3.8,2.9c-0.3,0.4-0.9,0.7-1.7,0.8
			v6.8c-0.1,0.3-1.8,1.1-2.9,1.1h-0.6v-1.3h-1.4v5.9h0.8L333.4,40.8z M330.6,8.7h6.6l0.8-5l6.4,1.1c-0.2,0.6-0.6,1.1-2,1.2L342,8.7
			h4l2.4-3.2c0,0,2.8,2.2,4.4,3.9c-0.2,0.6-0.7,0.8-1.3,0.8h-9.8l-0.2,1.1c8.8,0.7,5.8,7.1,2.4,4.9c-0.3-1.5-1.4-3.1-2.6-4.2
			l-0.1,0.2c-0.9,0.7-2.8,1-4.7,0.5l0.4-2.6h-6L330.6,8.7z"/>
		<path d="M361.3,37.6c1.8,5.4,1.2,9.5-0.2,11.5c-1,1.4-3.3,1.7-4.2,0.3c-0.7-1.2-0.1-2.7,1-3.6c1.3-1.5,2.8-5.1,2.5-8.2H361.3z
			 M357.4,31c0,0,1.2-0.3,1.6-0.6c2.5-2,5.6-5.8,8.1-9.6c-1.9,0.7-4.1,1.5-6.4,2.2c-0.4,0.5-0.8,0.9-1.2,1l-2.3-5.5
			c0,0,1-0.2,1.4-0.5c2.7-2.9,6.1-10.3,7.3-14.3l6,3.1c-0.3,0.5-0.8,0.8-1.9,0.7c-2.1,3.4-6,8.1-9.4,11.2c2.1,0,4.9,0,7.8-0.1
			c1.2-2,2.2-3.9,2.9-5.4l5.5,3.7c-0.3,0.4-1,0.7-2,0.5c-2.8,4-8.4,9.6-13.4,13.4c2.7-0.2,6.4-0.4,10.2-0.7
			c-0.6-1.9-1.4-3.7-2.1-5.1l0.6-0.3c9.6,5.3,5.6,12.5,2.3,9.4c-0.1-0.8-0.2-1.8-0.4-2.7c-2.9,1-7,2.4-11.3,3.7
			c-0.4,0.6-0.9,0.9-1.4,1.1L357.4,31z M365.8,36.7c7.6,6.7,2.8,13.7-0.2,9.9c0.5-3.2,0.1-7.1-0.5-9.7L365.8,36.7z M370.8,35.8
			c9,3.9,5,10.9,1.8,7.9c0-2.5-1.2-5.6-2.4-7.5L370.8,35.8z M404.4,23.4c-0.4,0.5-0.9,0.7-2.1,0.8c-1.5,6-3.8,11.4-7.6,16.2
			c3,3.1,6.7,5.5,10.7,7.3l-0.2,0.6c-2,0.2-3.6,1.5-4.5,3.7c-3.6-2.3-6.4-5.1-8.9-8.6c-3.6,3.5-8.3,6.4-14.3,8.5l-0.4-0.7
			c5.5-2.7,9.7-6.3,12.9-10.6c-2.5-4.6-4.2-10.2-5.3-17.2h-0.8c-0.8,10.8-3.2,20.8-10.9,28.6l-0.8-0.7c7.8-12.2,7.6-27.5,7.7-42.3
			h-3.8l-0.5-1.5h17.6l2.1-2.3l4.6,3.7c-0.4,0.4-0.9,0.6-1.8,0.7l-1.8,12.3h0.7l2.7-2.7L404.4,23.4z M384.6,9
			c-0.1,4.4-0.1,8.7-0.4,12.9h7.7L393.6,9H384.6z M385.9,23.4c1.2,5.6,3.3,10.3,6.3,14c2.6-4.2,4.2-9,5.3-14H385.9z"/>
		<path d="M437.8,10.1c-1.2,2.8-2.7,5.6-4.4,8.4l2.9,1.1c-0.2,0.5-0.6,0.8-1.6,1v30.3c-0.1,0.3-2.2,1.2-4,1.2h-0.9V23.8
			c-5.6,7.4-12.9,14-21.2,18.8l-0.5-0.6c10.5-8.3,19.6-20.9,23.2-32h-22l-0.4-1.5h37.8l3.3-4.2c0,0,3.7,2.8,6,4.8
			c-0.2,0.6-0.7,0.8-1.4,0.8H437.8z M437.3,23.1c22.5,6.3,20.7,18.8,14.7,15.8c-2.8-5.1-9.9-11.5-15.2-15.3L437.3,23.1z"/>
		<path d="M506.4,45.7c1.4,0.6,1.8,1.1,1.8,2.1c0,2.2-2.1,3.2-8.8,3.2h-3.8c-4.3,0-5.4-1.2-5.4-4.9V9.7h-15.3v13.6
			c0,10.2-1.4,21.5-14.7,28.8l-0.6-0.5c8.9-7.8,10.4-17.6,10.4-28.2V6l5.8,2.1h13.9l2.6-3l5.2,4.3c-0.4,0.4-1,0.7-2.2,0.9v34.2
			c0,1,0.3,1.4,1.6,1.4h2.9c1.3,0,2.3,0,2.8-0.1c0.4-0.1,0.8-0.2,1-0.7c0.5-0.9,1.3-4.3,2-7.5h0.5L506.4,45.7z M477,20.1
			c15.5,5.1,11.1,16,6,11.9c-0.7-4-3.8-8.5-6.5-11.5L477,20.1z"/>
		<path d="M553.9,45.3c0,0,3.3,2.6,5.4,4.5c-0.2,0.6-0.7,0.8-1.4,0.8h-45.9l-0.5-1.5h21.4v-6.8h-15.2l-0.4-1.5h15.7v-5l6.7,0.6
			c-0.1,0.7-0.5,1.2-1.8,1.4v3h8.7l2.9-3.7c0,0,3.2,2.5,5.2,4.4c-0.2,0.6-0.7,0.8-1.4,0.8h-15.3v6.8h13.2L553.9,45.3z M511.9,32.6
			c2.2-0.1,5.9-0.4,10.2-0.7v-4.1h-8.7l-0.4-1.5h9v-4.5h-3.9V23c0,0.3-1.4,1.4-3.6,1.4H514V5.2l4.9,1.9H530l2.2-2.3l4.6,3.5
			c-0.3,0.4-1.1,0.8-2,1V22c-0.1,0.3-1.2,0.9-2.4,1.2c0.5,0.4,3,2.3,4.5,3.7c-0.2,0.6-0.7,0.8-1.4,0.8h-9.1v3.7
			c3.3-0.3,6.8-0.6,10.4-1l0.1,0.8c-4.8,1.5-11.5,3.2-21.3,5.5c-0.3,0.7-0.8,1-1.3,1.2L511.9,32.6z M518.2,8.6v5h3.9v-5H518.2z
			 M522.1,20.2v-5.1h-3.9v5.1H522.1z M526.5,8.6v5h4v-5H526.5z M530.6,15.1h-4v5.1h4V15.1z M526.5,26.2h3.4l2.4-3
			c-0.4,0.1-0.7,0.1-1,0.1h-0.7v-1.7h-4V26.2z M537.2,8.6l-0.5-1.5h14.2l2.6-2.5l4.5,4.3c-0.5,0.4-1,0.5-2.1,0.5
			c-1.9,1.2-5.1,2.9-7.8,4.1c1.7,1.6,1.8,3.4,1,4.5h3.3l2.5-2.7l4.5,4.4c-0.4,0.4-1,0.5-2.1,0.6c-1.6,1.8-4.6,4.4-6.8,5.9l-0.6-0.4
			c0.8-1.7,1.9-4.4,2.5-6.5h-4.2v11.9c0,3.2-0.7,5.3-5.9,5.8c-0.1-1.3-0.3-2.4-0.9-3.1c-0.6-0.7-1.6-1.1-3.7-1.5v-0.8
			c0,0,4.1,0.3,4.9,0.3c0.8,0,1-0.3,1-0.9V19.4h-7.3L536,18h10c-1.1-2.5-3.9-5.3-6.2-6.8l0.4-0.5c3,0.2,5.2,0.9,6.7,1.8
			c1.1-1.2,2.4-2.7,3.5-4H537.2z"/>
		<path d="M586.8,18.8c0,0,2.8,2.4,4.5,4.1c-0.1,0.6-0.7,0.8-1.4,0.8H582c0.6,7.3,2.1,14.1,4.9,18.1c0.5,0.7,0.8,0.7,1.2-0.2
			c0.6-1.1,1.4-3.3,2-5.3l0.6,0.1l-0.8,7.8c1.1,2.4,1.3,3.7,0.4,4.5c-2,1.6-4.9-0.4-6.4-2.5c-3.8-5.8-5.4-13.8-6.1-22.5h-7.5v15.1
			c2.3-0.8,4.9-1.8,7.6-2.8l0.2,0.6c-1.9,1.7-5.6,4.8-9.9,8c-0.3,1-1,1.7-1.6,2l-3-5.8c2-1,2.3-1.5,2.3-2.5V7.1l5.4,1.8
			c5.3-1.4,10.9-3.4,14.1-4.9l4.8,4.9c-0.6,0.5-1.6,0.5-3-0.2c-1.5,0.3-3.4,0.5-5.4,0.8c-0.2,4.1-0.2,8.4,0.1,12.7h2.4L586.8,18.8z
			 M579,44.9c0,0,2.8,2.3,4.5,4c-0.2,0.6-0.7,0.8-1.4,0.8h-15l-0.4-1.5h9.8L579,44.9z M577.7,22.3c-0.3-4-0.3-8.1-0.3-12.2
			c-2.3,0.2-4.7,0.4-7,0.5v11.8H577.7z M611.4,8.8c-0.4,0.5-1.1,0.6-2.3,0.7c-1.8,3.4-5.2,9.6-7.7,13.1c6.1,4,8.4,9,8.4,13.5
			c0.1,5.3-2,8-7.8,8.2c0-1.4-0.3-3.1-0.7-3.7c-0.4-0.5-1.4-0.9-2.8-1.1v-0.8h4.1c0.6,0,0.9-0.1,1.2-0.3c0.9-0.5,1.4-1.5,1.4-3.5
			c0-4-1.5-8.2-5.2-12.1c1.1-3.6,2.9-10.1,3.9-14.5h-7.4v41.6c0,0.4-1.4,1.5-3.7,1.5h-0.8V4.1l5.1,2.5h6.4l2.7-2.7L611.4,8.8z"/>
	</g>
</g>
</svg>
